<svg width="17" height="23" viewBox="0 0 17 23" fill="none" xmlns="http://www.w3.org/2000/svg">
<path d="M8.5 17C9.66875 17 10.625 16.0438 10.625 14.875C10.625 13.7063 9.66875 12.75 8.5 12.75C7.33125 12.75 6.375 13.7063 6.375 14.875C6.375 16.0438 7.33125 17 8.5 17ZM14.875 7.4375H13.8125V5.3125C13.8125 2.38 11.4325 0 8.5 0C5.5675 0 3.1875 2.38 3.1875 5.3125H5.20625C5.20625 3.49563 6.68313 2.01875 8.5 2.01875C10.3169 2.01875 11.7938 3.49563 11.7938 5.3125V7.4375H2.125C0.95625 7.4375 0 8.39375 0 9.5625V20.1875C0 21.3563 0.95625 22.3125 2.125 22.3125H14.875C16.0438 22.3125 17 21.3563 17 20.1875V9.5625C17 8.39375 16.0438 7.4375 14.875 7.4375ZM14.875 20.1875H2.125V9.5625H14.875V20.1875Z" fill="#969696"/>
</svg>
