<svg width="32" height="30" viewBox="0 0 32 30" fill="none" xmlns="http://www.w3.org/2000/svg">
<path d="M16 12.8686C14.24 12.8686 12.8 14.3164 12.8 16.0858C12.8 17.8552 14.24 19.3029 16 19.3029C17.76 19.3029 19.2 17.8552 19.2 16.0858C19.2 14.3164 17.76 12.8686 16 12.8686ZM25.6 16.0858C25.6 10.7614 21.296 6.43432 16 6.43432C10.704 6.43432 6.4 10.7614 6.4 16.0858C6.4 19.6568 8.336 22.7614 11.2 24.4343L12.8 21.6354C10.896 20.5094 9.6 18.4665 9.6 16.0858C9.6 12.5308 12.464 9.65147 16 9.65147C19.536 9.65147 22.4 12.5308 22.4 16.0858C22.4 18.4665 21.104 20.5094 19.2 21.6354L20.8 24.4343C23.664 22.7614 25.6 19.6568 25.6 16.0858ZM16 0C7.168 0 0 7.20643 0 16.0858C0 22.0375 3.216 27.2172 7.984 30L9.584 27.2172C5.776 24.9812 3.2 20.8472 3.2 16.0858C3.2 8.97587 8.928 3.21716 16 3.21716C23.072 3.21716 28.8 8.97587 28.8 16.0858C28.8 20.8472 26.224 24.9812 22.4 27.2172L24 30C28.784 27.2172 32 22.0375 32 16.0858C32 7.20643 24.832 0 16 0Z" fill="white"/>
</svg>
