<svg width="20" height="20" viewBox="0 0 20 20" fill="none" xmlns="http://www.w3.org/2000/svg">
<g clip-path="url(#clip0_4_52)">
<path d="M10 12.5C11.3807 12.5 12.5 11.3807 12.5 10C12.5 8.61929 11.3807 7.5 10 7.5C8.61929 7.5 7.5 8.61929 7.5 10C7.5 11.3807 8.61929 12.5 10 12.5Z" stroke="white" stroke-width="1.5" stroke-linecap="round" stroke-linejoin="round"/>
<path d="M16.1667 12.4999C16.0558 12.7513 16.0227 13.0301 16.0717 13.3004C16.1207 13.5707 16.2496 13.8202 16.4417 14.0166L16.4917 14.0666C16.6467 14.2214 16.7696 14.4052 16.8535 14.6075C16.9373 14.8098 16.9805 15.0267 16.9805 15.2458C16.9805 15.4648 16.9373 15.6817 16.8535 15.884C16.7696 16.0863 16.6467 16.2701 16.4917 16.4249C16.3369 16.5799 16.1531 16.7028 15.9508 16.7867C15.7484 16.8706 15.5316 16.9137 15.3125 16.9137C15.0935 16.9137 14.8766 16.8706 14.6743 16.7867C14.472 16.7028 14.2882 16.5799 14.1334 16.4249L14.0834 16.3749C13.887 16.1828 13.6375 16.0539 13.3672 16.0049C13.0969 15.9559 12.8181 15.989 12.5667 16.0999C12.3202 16.2056 12.11 16.381 11.962 16.6045C11.8139 16.8281 11.7344 17.0901 11.7334 17.3583V17.4999C11.7334 17.9419 11.5578 18.3659 11.2452 18.6784C10.9327 18.991 10.5087 19.1666 10.0667 19.1666C9.62468 19.1666 9.20076 18.991 8.8882 18.6784C8.57563 18.3659 8.40004 17.9419 8.40004 17.4999V17.4249C8.39359 17.1491 8.30431 16.8816 8.1438 16.6572C7.98329 16.4328 7.75899 16.2618 7.50004 16.1666C7.24869 16.0557 6.96988 16.0226 6.69955 16.0716C6.42922 16.1206 6.17977 16.2495 5.98337 16.4416L5.93337 16.4916C5.77858 16.6465 5.59477 16.7695 5.39244 16.8533C5.19011 16.9372 4.97323 16.9804 4.75421 16.9804C4.53518 16.9804 4.3183 16.9372 4.11597 16.8533C3.91364 16.7695 3.72983 16.6465 3.57504 16.4916C3.42008 16.3368 3.29715 16.153 3.21327 15.9507C3.1294 15.7483 3.08623 15.5314 3.08623 15.3124C3.08623 15.0934 3.1294 14.8765 3.21327 14.6742C3.29715 14.4719 3.42008 14.288 3.57504 14.1332L3.62504 14.0833C3.81715 13.8869 3.94603 13.6374 3.99504 13.3671C4.04406 13.0967 4.01097 12.8179 3.90004 12.5666C3.7944 12.3201 3.619 12.1099 3.39543 11.9618C3.17185 11.8138 2.90986 11.7343 2.64171 11.7333H2.50004C2.05801 11.7333 1.63409 11.5577 1.32153 11.2451C1.00897 10.9325 0.833374 10.5086 0.833374 10.0666C0.833374 9.62456 1.00897 9.20063 1.32153 8.88807C1.63409 8.57551 2.05801 8.39992 2.50004 8.39992H2.57504C2.85087 8.39347 3.11838 8.30418 3.34279 8.14368C3.5672 7.98317 3.73814 7.75886 3.83337 7.49992C3.9443 7.24857 3.97739 6.96976 3.92838 6.69943C3.87936 6.4291 3.75049 6.17965 3.55837 5.98325L3.50837 5.93325C3.35341 5.77846 3.23048 5.59465 3.14661 5.39232C3.06273 5.18999 3.01956 4.97311 3.01956 4.75408C3.01956 4.53506 3.06273 4.31818 3.14661 4.11585C3.23048 3.91352 3.35341 3.72971 3.50837 3.57492C3.66316 3.41996 3.84698 3.29703 4.04931 3.21315C4.25164 3.12928 4.46851 3.08611 4.68754 3.08611C4.90657 3.08611 5.12344 3.12928 5.32577 3.21315C5.5281 3.29703 5.71192 3.41996 5.86671 3.57492L5.91671 3.62492C6.11311 3.81703 6.36255 3.94591 6.63288 3.99492C6.90321 4.04394 7.18203 4.01085 7.43337 3.89992H7.50004C7.74651 3.79428 7.95672 3.61888 8.10478 3.39531C8.25285 3.17173 8.3323 2.90974 8.33337 2.64159V2.49992C8.33337 2.05789 8.50897 1.63397 8.82153 1.32141C9.13409 1.00885 9.55801 0.833252 10 0.833252C10.4421 0.833252 10.866 1.00885 11.1786 1.32141C11.4911 1.63397 11.6667 2.05789 11.6667 2.49992V2.57492C11.6678 2.84307 11.7472 3.10506 11.8953 3.32864C12.0434 3.55221 12.2536 3.72762 12.5 3.83325C12.7514 3.94418 13.0302 3.97727 13.3005 3.92826C13.5709 3.87924 13.8203 3.75037 14.0167 3.55825L14.0667 3.50825C14.2215 3.35329 14.4053 3.23036 14.6076 3.14649C14.81 3.06261 15.0268 3.01944 15.2459 3.01944C15.4649 3.01944 15.6818 3.06261 15.8841 3.14649C16.0864 3.23036 16.2702 3.35329 16.425 3.50825C16.58 3.66304 16.7029 3.84685 16.7868 4.04918C16.8707 4.25151 16.9139 4.46839 16.9139 4.68742C16.9139 4.90644 16.8707 5.12332 16.7868 5.32565C16.7029 5.52798 16.58 5.7118 16.425 5.86658L16.375 5.91658C16.1829 6.11298 16.0541 6.36243 16.005 6.63276C15.956 6.90309 15.9891 7.1819 16.1 7.43325V7.49992C16.2057 7.74639 16.3811 7.9566 16.6047 8.10466C16.8282 8.25272 17.0902 8.33218 17.3584 8.33325H17.5C17.9421 8.33325 18.366 8.50885 18.6785 8.82141C18.9911 9.13397 19.1667 9.55789 19.1667 9.99992C19.1667 10.4419 18.9911 10.8659 18.6785 11.1784C18.366 11.491 17.9421 11.6666 17.5 11.6666H17.425C17.1569 11.6677 16.8949 11.7471 16.6713 11.8952C16.4477 12.0432 16.2723 12.2534 16.1667 12.4999V12.4999Z" stroke="white" stroke-width="1.5" stroke-linecap="round" stroke-linejoin="round"/>
</g>
<defs>
<clipPath id="clip0_4_52">
<rect width="20" height="20" fill="white"/>
</clipPath>
</defs>
</svg>
